# xmcd
#
# Track frame offsets:
#	150
#	20039
#	37268
#	63299
#	86136
#	106254
#	123148
#	140239
#	159671
#	177952
#	202268
#	221192
#	250817
#
# Disc length: 3642 seconds
#
# Revision: 0
# Processed by: cddbd v1.5.2PL0 Copyright (c) Steve Scherf et al.
# Submitted via: EasyCDDAExtractor 9.0.0.1
#
DISCID=c90e380d
DTITLE=Susan Santos and The Papa's Red Band - Shuffle Woman
DYEAR=2012
DGENRE=Blues
TTITLE0=Black Sunglasses
TTITLE1=Tequila Shot
TTITLE2=Midnight Blue
TTITLE3=Crazy
TTITLE4=Don't Treat Me Bad
TTITLE5=Goin' Back Home
TTITLE6=Shuffle Woman
TTITLE7=Heatwave
TTITLE8=Straight To The Bone
TTITLE9=Spinnin' Round
TTITLE10=Come On
TTITLE11=Tumbleweed
TTITLE12=Wake Up
EXTD=
EXTT0=
EXTT1=
EXTT2=
EXTT3=
EXTT4=
EXTT5=
EXTT6=
EXTT7=
EXTT8=
EXTT9=
EXTT10=
EXTT11=
EXTT12=
PLAYORDER=
